<?xml version="1.0" encoding="UTF-8"?>
<svg width="22px" height="20px" viewBox="0 0 22 20" version="1.1" xmlns="http://www.w3.org/2000/svg" xmlns:xlink="http://www.w3.org/1999/xlink">
    <!-- Generator: Sketch 64 (93537) - https://sketch.com -->
    <title>noun_Star_3283491</title>
    <desc>Created with Sketch.</desc>
    <g id="Page-1" stroke="none" stroke-width="1" fill="none" fill-rule="evenodd">
        <g id="noun_Star_3283491" fill="#000000" fill-rule="nonzero">
            <path d="M21.27,7.65 C21.2100959,7.467247 21.0506821,7.33505021 20.86,7.31 L14.36,6.31 L11.45,0.47 C11.3570242,0.309436277 11.1855403,0.210576284 11,0.210576284 C10.8144597,0.210576284 10.6429758,0.309436277 10.55,0.47 L7.64,6.36 L1.14,7.36 C0.949317924,7.38505021 0.78990415,7.517247 0.73,7.7 C0.67060981,7.88082038 0.721297917,8.07967373 0.86,8.21 L5.57,12.8 L4.46,19.23 C4.42297806,19.4163562 4.4970239,19.6073165 4.65,19.72 C4.81279601,19.8190047 5.01720399,19.8190047 5.18,19.72 L11,16.7 L16.82,19.75 C16.8900861,19.7898048 16.9694008,19.8104956 17.05,19.8100192 C17.1567833,19.8109078 17.2613504,19.7795377 17.35,19.72 C17.5029761,19.6073165 17.5770219,19.4163562 17.54,19.23 L16.43,12.75 L21.14,8.16 C21.2787021,8.02967373 21.3293902,7.83082038 21.27,7.65 Z" id="Path"></path>
        </g>
    </g>
</svg>