<?xml version="1.0" encoding="UTF-8"?>
<svg width="84px" height="84px" viewBox="0 0 84 84" version="1.1" xmlns="http://www.w3.org/2000/svg" xmlns:xlink="http://www.w3.org/1999/xlink">
    <!-- Generator: Sketch 64 (93537) - https://sketch.com -->
    <title>noun_Undo_2462950</title>
    <desc>Created with Sketch.</desc>
    <g id="Page-1" stroke="none" stroke-width="1" fill="none" fill-rule="evenodd">
        <g id="noun_Undo_2462950" fill="#000000" fill-rule="nonzero">
            <path d="M42,83.5000243 C29.6491447,83.5133736 17.9369858,78.0129859 10.06,68.5 C9.52609451,67.803288 9.57257031,66.8230711 10.17,66.18 L17.57,58.72 C17.9479922,58.4023283 18.4262472,58.2287394 18.92,58.23 C19.404767,58.2681964 19.8528033,58.5030541 20.16,58.88 C25.3489494,65.6979181 33.4321097,69.6913841 42,69.67 C54.4022697,69.6856625 65.300005,61.4469335 68.6662366,49.5102244 C72.0324683,37.5735153 67.0448155,24.8550009 56.4616891,18.3886282 C45.8785627,11.9222556 32.2854529,13.2877796 23.2,21.73 L30.6,29.19 C31.6090579,30.1517138 31.9123314,31.6401479 31.36,32.92 C30.8360523,34.2240636 29.5753588,35.0816513 28.17,35.09 L4,35.09 C3.07704203,35.0953196 2.18977445,34.7337698 1.5333938,34.0848907 C0.877013153,33.4360115 0.505289114,32.5529581 0.5,31.63 L0.5,7.42 C0.506694032,6.01709531 1.35986178,4.75709295 2.66,4.23 C3.93985206,3.67766863 5.42828624,3.98094209 6.39,4.99 L13.39,11.99 C21.125258,4.67162115 31.3515867,0.564647458 42,0.5 C64.9198171,0.5 83.5,19.0801829 83.5,42 C83.5,64.9198171 64.9198171,83.5000243 42,83.5000243 Z" id="Path"></path>
        </g>
    </g>
</svg>