<?xml version="1.0" encoding="UTF-8"?>
<svg width="100px" height="100px" viewBox="0 0 100 100" version="1.1" xmlns="http://www.w3.org/2000/svg" xmlns:xlink="http://www.w3.org/1999/xlink">
    <!-- Generator: Sketch 64 (93537) - https://sketch.com -->
    <title>noun_help_2302541</title>
    <desc>Created with Sketch.</desc>
    <g id="Page-1" stroke="none" stroke-width="1" fill="none" fill-rule="evenodd">
        <g id="noun_help_2302541" fill="#FFFFFF" fill-rule="nonzero">
            <path d="M50,0 C22.3857625,0 0,22.3857625 0,50 C0,77.6142375 22.3857625,100 50,100 C77.6142375,100 100,77.6142375 100,50 C100,36.7391755 94.732158,24.0214799 85.3553391,14.6446609 C75.9785201,5.26784202 63.2608245,0 50,0 Z M55.39,74.84 C55.39,76.0329351 54.4229351,77 53.23,77 L44.87,77 C43.6770649,77 42.71,76.0329351 42.71,74.84 L42.71,67.84 C42.71,66.6470649 43.6770649,65.68 44.87,65.68 L53.23,65.68 C54.4229351,65.68 55.39,66.6470649 55.39,67.84 L55.39,74.84 Z M59.65,51.64 C57.65,52.93 56,54.53 55.65,57.07 C55.52,57.94 54.86,58.28 54.01,58.28 L49.31,58.28 C47.78,58.28 46.26,58.28 44.73,58.28 C43.46,58.28 43.01,57.72 42.89,56.48 C42.42,51.85 44.79,48.73 48.27,46.2 C49.27,45.45 50.48,44.88 51.58,44.2 C52.4834388,43.7363718 53.3523487,43.2083419 54.18,42.62 C55.2248401,41.8493028 55.8306264,40.619434 55.8047842,39.3213596 C55.778942,38.0232851 55.1246863,36.8185015 54.05,36.09 C51.0527289,33.8564078 46.8786297,34.1231099 44.19,36.72 C43.05,37.88 42,39.13 41,40.36 C40.7721714,40.7597887 40.3692018,41.0287768 39.9126064,41.0858512 C39.456011,41.1429256 38.999228,40.9814066 38.68,40.65 L32.51,36.1 C31.25,35.17 31.15,34.68 31.99,33.32 C35.18,28.16 39.56,24.66 45.61,23.47 C52.49,22.11 58.61,23.69 63.69,28.52 C66.538734,30.9873983 68.2846013,34.4899321 68.54,38.25 C68.9223875,42.6572543 66.8909982,46.9266147 63.23,49.41 C62.09,50.22 60.84,50.88 59.65,51.64 Z" id="Shape"></path>
        </g>
    </g>
</svg>